M48
; DRILL file KiCad 10.0.0 date 2026-05-09T18:08:53
; FORMAT={-:-/ absolute / metric / decimal}
; #@! TF.CreationDate,2026-05-09T18:08:53+02:00
; #@! TF.GenerationSoftware,Kicad,Pcbnew,10.0.0
; #@! TF.FileFunction,Plated,1,2,PTH
FMAT,2
METRIC
; #@! TA.AperFunction,Plated,PTH,ComponentDrill
T1C0.200
; #@! TA.AperFunction,Plated,PTH,ViaDrill
T2C0.300
; #@! TA.AperFunction,Plated,PTH,ViaDrill
T3C0.400
; #@! TA.AperFunction,Plated,PTH,ComponentDrill
T4C0.500
; #@! TA.AperFunction,Plated,PTH,ComponentDrill
T5C0.600
; #@! TA.AperFunction,Plated,PTH,ViaDrill
T6C0.800
; #@! TA.AperFunction,Plated,PTH,ComponentDrill
T7C0.800
; #@! TA.AperFunction,Plated,PTH,ComponentDrill
T8C1.000
; #@! TA.AperFunction,Plated,PTH,ComponentDrill
T9C1.016
; #@! TA.AperFunction,Plated,PTH,ComponentDrill
T10C1.050
; #@! TA.AperFunction,Plated,PTH,ComponentDrill
T11C1.600
; #@! TA.AperFunction,Plated,PTH,ComponentDrill
T12C2.500
; #@! TA.AperFunction,Plated,PTH,ComponentDrill
T13C3.200
%
G90
G05
T1
X77.7Y-53.7
X77.7Y-55.1
X78.4Y-53.0
X78.4Y-54.4
X78.4Y-55.8
X79.1Y-53.7
X79.1Y-55.1
X79.8Y-53.0
X79.8Y-54.4
X79.8Y-55.8
X80.5Y-53.7
X80.5Y-55.1
T2
X28.6Y-94.6
X28.8Y-65.8
X28.8Y-91.4
X28.8Y-97.4
X29.0Y-44.0
X29.0Y-49.0
X29.0Y-62.6
X29.2Y-57.4
X29.2Y-83.6
X29.2Y-87.2
X29.4Y-68.8
X29.8Y-41.0
X30.0Y-99.0
X30.6Y-64.8
X32.2Y-101.0
X32.8Y-39.0
X33.4Y-49.8
X35.6Y-79.8
X36.2Y-71.4
X36.6Y-101.0
X36.8Y-57.4
X37.0Y-63.6
X38.0Y-49.4
X38.2Y-38.8
X38.4Y-97.0
X39.0Y-72.2
X39.2Y-84.0
X40.0Y-45.8
X40.2Y-42.8
X40.2Y-73.0
X42.0Y-100.8
X42.4Y-61.4
X42.4Y-78.2
X42.8Y-55.6
X43.0Y-85.8
X44.0Y-76.6
X44.4Y-63.4
X45.4Y-39.6
X45.4Y-42.0
X46.4Y-78.2
X46.6Y-97.8
X46.675Y-48.221
X47.525Y-48.221
X48.8Y-85.8
X49.2Y-39.4
X49.2Y-42.0
X49.6Y-97.8
X53.2Y-96.8
X53.4Y-74.6
X54.4Y-43.0
X54.6Y-38.4
X54.6Y-45.8
X54.6Y-93.0
X54.8Y-77.0
X55.2Y-95.0
X55.4Y-97.8
X56.4Y-47.0
X56.4Y-65.8
X57.0Y-78.0
X57.2Y-85.2
X57.4Y-76.2
X57.8Y-62.2
X58.0Y-51.6
X58.2Y-96.6
X58.4Y-94.0
X58.6Y-83.4
X58.8Y-64.2
X60.4Y-83.2
X60.6Y-85.4
X62.6Y-84.6
X63.2Y-65.8
X63.2Y-78.8
X63.8Y-54.4
X64.2Y-94.8
X65.2Y-56.0
X65.2Y-61.4
X65.2Y-64.6
X66.2Y-53.8
X66.2Y-67.4
X66.4Y-61.4
X66.4Y-77.6
X67.0Y-83.6
X67.4Y-94.8
X68.4Y-55.6
X68.4Y-77.8
X68.8Y-80.8
X69.0Y-84.2
X69.6Y-70.8
X70.2Y-50.6
X70.6Y-77.0
X70.6Y-94.8
X71.0Y-80.4
X71.2Y-81.6
X71.8Y-66.8
X71.8Y-70.4
X72.0Y-74.8
X72.0Y-85.6
X72.2Y-83.6
X73.0Y-67.8
X73.0Y-71.2
X73.5Y-52.3
X73.6Y-95.2
X73.8Y-55.0
X73.8Y-57.6
X74.0Y-76.8
X74.2Y-51.0
X74.2Y-71.0
X74.6Y-85.8
X74.6Y-87.2
X74.8Y-80.2
X75.0Y-46.8
X75.0Y-76.8
X75.0Y-82.2
X75.2Y-70.2
X75.4Y-62.6
X76.0Y-74.6
X76.025Y-60.6
X76.425Y-54.575
X76.6Y-84.0
X76.8Y-76.8
X77.2Y-47.8
X77.4Y-50.6
X78.0Y-85.4
X78.2Y-58.0
X78.2Y-61.8
X78.2Y-67.2
X78.6Y-70.4
X78.8Y-47.8
X79.4Y-51.0
X79.449Y-81.8
X79.6Y-62.0
X79.6Y-75.0
X80.0Y-66.8
X80.2Y-58.0
X80.6Y-81.2
X81.0Y-75.0
X81.0Y-76.2
X81.2Y-69.2
X81.4Y-51.0
X81.6Y-46.8
X81.8Y-77.0
X82.2Y-83.0
X82.4Y-53.8
X82.4Y-55.6
X82.4Y-62.2
X82.4Y-66.4
X82.4Y-67.6
X82.6Y-81.2
X82.8Y-48.0
X82.8Y-71.4
X83.4Y-51.4
X83.6Y-57.6
X83.8Y-55.6
X83.8Y-82.8
X83.8Y-84.4
X83.8Y-86.4
X84.0Y-88.6
X84.2Y-71.0
X84.4Y-66.2
X84.6Y-48.0
X84.8Y-53.4
X84.8Y-58.8
X85.0Y-51.2
X85.0Y-61.4
X85.0Y-71.6
X85.2Y-70.0
X85.4Y-80.4
X85.8Y-77.2
X86.0Y-47.8
X86.2Y-52.2
X86.8Y-55.2
X87.2Y-46.2
X87.4Y-66.6
X91.2Y-49.6
X91.2Y-80.4
X92.0Y-83.2
X92.4Y-84.8
X93.0Y-97.0
X93.4Y-80.2
X94.2Y-82.8
X95.0Y-94.6
X95.2Y-49.6
X95.8Y-94.0
X97.6Y-79.0
X97.8Y-85.0
X98.0Y-81.6
X98.4Y-99.4
X99.2Y-98.4
X100.2Y-101.4
X101.6Y-89.4
X102.0Y-95.8
X103.4Y-98.0
X103.6Y-92.6
X104.6Y-96.2
X105.0Y-98.6
X105.2Y-44.6
X105.8Y-38.8
X105.8Y-41.2
X106.4Y-100.6
X109.4Y-38.8
X110.4Y-100.8
X112.8Y-40.2
X113.2Y-48.6
X113.4Y-99.8
X113.8Y-70.2
X114.4Y-73.0
X114.4Y-92.6
X114.6Y-52.0
X114.6Y-75.6
X114.6Y-97.2
X114.8Y-59.4
X114.8Y-69.0
X115.0Y-63.8
X115.0Y-66.4
X115.0Y-77.0
X115.2Y-42.4
X115.2Y-45.4
X115.2Y-55.2
X115.2Y-71.8
T3
X65.2Y-70.6
X65.2Y-73.0
X73.168Y-47.323
X108.95Y-59.4
T4
X31.6Y-44.0
X31.6Y-96.0
X32.303Y-42.303
X32.303Y-45.697
X32.303Y-94.303
X32.303Y-97.697
X34.0Y-41.6
X34.0Y-46.4
X34.0Y-93.6
X34.0Y-98.4
X35.697Y-42.303
X35.697Y-45.697
X35.697Y-94.303
X35.697Y-97.697
X36.4Y-44.0
X36.4Y-96.0
X107.6Y-44.0
X107.6Y-96.0
X108.303Y-42.303
X108.303Y-45.697
X108.303Y-94.303
X108.303Y-97.697
X110.0Y-41.6
X110.0Y-46.4
X110.0Y-93.6
X110.0Y-98.4
X111.697Y-42.303
X111.697Y-45.697
X111.697Y-94.303
X111.697Y-97.697
X112.4Y-44.0
X112.4Y-96.0
T5
X96.922Y-67.07
X99.462Y-67.07
X102.002Y-67.07
T6
X62.8Y-97.4
T7
X42.8Y-91.6
X47.8Y-91.6
T8
X92.46Y-47.2
X95.0Y-47.2
X97.54Y-47.2
X100.08Y-47.2
X102.62Y-47.2
T9
X64.038Y-91.797
X65.435Y-89.003
X66.832Y-91.797
X68.229Y-89.003
X69.626Y-91.797
X71.023Y-89.003
X72.42Y-91.797
X73.817Y-89.003
X75.214Y-91.797
X76.611Y-89.003
X78.008Y-91.797
X79.405Y-89.003
X80.802Y-91.797
X82.199Y-89.003
X83.596Y-91.797
T10
X104.55Y-62.15
X104.55Y-68.65
X104.606Y-50.4
X104.606Y-56.9
X109.05Y-62.15
X109.05Y-68.65
X109.106Y-50.4
X109.106Y-56.9
T11
X33.4Y-74.58
X33.4Y-89.82
T12
X33.4Y-54.4
X33.4Y-60.8
T13
X34.0Y-44.0
X34.0Y-96.0
X110.0Y-44.0
X110.0Y-96.0
T5
G00X43.28Y-40.425
M15
G01X43.28Y-39.825
M16
G05
G00X43.28Y-44.855
M15
G01X43.28Y-43.755
M16
G05
G00X51.92Y-40.425
M15
G01X51.92Y-39.825
M16
G05
G00X51.92Y-44.855
M15
G01X51.92Y-43.755
M16
G05
M30
