%TF.GenerationSoftware,KiCad,Pcbnew,10.0.0*%
%TF.CreationDate,2026-05-09T18:08:49+02:00*%
%TF.ProjectId,DotDriver,446f7444-7269-4766-9572-2e6b69636164,rev?*%
%TF.SameCoordinates,Original*%
%TF.FileFunction,Soldermask,Bot*%
%TF.FilePolarity,Negative*%
%FSLAX46Y46*%
G04 Gerber Fmt 4.6, Leading zero omitted, Abs format (unit mm)*
G04 Created by KiCad (PCBNEW 10.0.0) date 2026-05-09 18:08:49*
%MOMM*%
%LPD*%
G01*
G04 APERTURE LIST*
G04 Aperture macros list*
%AMRoundRect*
0 Rectangle with rounded corners*
0 $1 Rounding radius*
0 $2 $3 $4 $5 $6 $7 $8 $9 X,Y pos of 4 corners*
0 Add a 4 corners polygon primitive as box body*
4,1,4,$2,$3,$4,$5,$6,$7,$8,$9,$2,$3,0*
0 Add four circle primitives for the rounded corners*
1,1,$1+$1,$2,$3*
1,1,$1+$1,$4,$5*
1,1,$1+$1,$6,$7*
1,1,$1+$1,$8,$9*
0 Add four rect primitives between the rounded corners*
20,1,$1+$1,$2,$3,$4,$5,0*
20,1,$1+$1,$4,$5,$6,$7,0*
20,1,$1+$1,$6,$7,$8,$9,0*
20,1,$1+$1,$8,$9,$2,$3,0*%
G04 Aperture macros list end*
%ADD10C,0.650000*%
%ADD11O,1.000000X2.100000*%
%ADD12O,1.000000X1.600000*%
%ADD13C,1.779000*%
%ADD14R,1.700000X1.700000*%
%ADD15C,1.700000*%
%ADD16C,4.000000*%
%ADD17C,3.000000*%
%ADD18RoundRect,0.102000X0.554000X0.554000X-0.554000X0.554000X-0.554000X-0.554000X0.554000X-0.554000X0*%
%ADD19C,1.312000*%
%ADD20C,0.800000*%
%ADD21C,6.400000*%
%ADD22RoundRect,0.250000X-1.350000X1.350000X-1.350000X-1.350000X1.350000X-1.350000X1.350000X1.350000X0*%
%ADD23C,3.200000*%
%ADD24C,4.114800*%
%ADD25C,1.778800*%
G04 APERTURE END LIST*
D10*
%TO.C,J1*%
X50490000Y-43805000D03*
X44710000Y-43805000D03*
D11*
X51920000Y-44305000D03*
D12*
X51920000Y-40125000D03*
D11*
X43280000Y-44305000D03*
D12*
X43280000Y-40125000D03*
%TD*%
D13*
%TO.C,S2*%
X109106250Y-50400000D03*
X109106250Y-56900000D03*
X104606250Y-50400000D03*
X104606250Y-56900000D03*
%TD*%
D14*
%TO.C,J2*%
X102620000Y-47200000D03*
D15*
X100080000Y-47200000D03*
X97540000Y-47200000D03*
X95000000Y-47200000D03*
X92460000Y-47200000D03*
%TD*%
D16*
%TO.C,J3*%
X33400000Y-60800000D03*
X33400000Y-54400000D03*
%TD*%
D17*
%TO.C,C7*%
X47800000Y-91600000D03*
X42800000Y-91600000D03*
%TD*%
D18*
%TO.C,Q1*%
X102002500Y-67070000D03*
D19*
X99462500Y-67070000D03*
X96922500Y-67070000D03*
%TD*%
D20*
%TO.C,H1*%
X31600000Y-44000000D03*
X32302944Y-42302944D03*
X32302944Y-45697056D03*
X34000000Y-41600000D03*
D21*
X34000000Y-44000000D03*
D20*
X34000000Y-46400000D03*
X35697056Y-42302944D03*
X35697056Y-45697056D03*
X36400000Y-44000000D03*
%TD*%
D22*
%TO.C,D1*%
X33400000Y-74580000D03*
D23*
X33400000Y-89820000D03*
%TD*%
D24*
%TO.C,J5*%
X90200000Y-90400000D03*
X57434000Y-90400000D03*
D25*
X83596000Y-91797000D03*
X80802000Y-91797000D03*
X78008000Y-91797000D03*
X75214000Y-91797000D03*
X72420000Y-91797000D03*
X69626000Y-91797000D03*
X66832000Y-91797000D03*
X64038000Y-91797000D03*
X82199000Y-89003000D03*
X79405000Y-89003000D03*
X76611000Y-89003000D03*
X73817000Y-89003000D03*
X71023000Y-89003000D03*
X68229000Y-89003000D03*
X65435000Y-89003000D03*
%TD*%
D20*
%TO.C,H2*%
X107600000Y-44000000D03*
X108302944Y-42302944D03*
X108302944Y-45697056D03*
X110000000Y-41600000D03*
D21*
X110000000Y-44000000D03*
D20*
X110000000Y-46400000D03*
X111697056Y-42302944D03*
X111697056Y-45697056D03*
X112400000Y-44000000D03*
%TD*%
D13*
%TO.C,S1*%
X104550000Y-68650000D03*
X104550000Y-62150000D03*
X109050000Y-68650000D03*
X109050000Y-62150000D03*
%TD*%
D20*
%TO.C,H4*%
X107600000Y-96000000D03*
X108302944Y-94302944D03*
X108302944Y-97697056D03*
X110000000Y-93600000D03*
D21*
X110000000Y-96000000D03*
D20*
X110000000Y-98400000D03*
X111697056Y-94302944D03*
X111697056Y-97697056D03*
X112400000Y-96000000D03*
%TD*%
%TO.C,H3*%
X31600000Y-96000000D03*
X32302944Y-94302944D03*
X32302944Y-97697056D03*
X34000000Y-93600000D03*
D21*
X34000000Y-96000000D03*
D20*
X34000000Y-98400000D03*
X35697056Y-94302944D03*
X35697056Y-97697056D03*
X36400000Y-96000000D03*
%TD*%
M02*
