%TF.GenerationSoftware,KiCad,Pcbnew,10.0.0*%
%TF.CreationDate,2026-05-09T18:08:53+02:00*%
%TF.ProjectId,DotDriver,446f7444-7269-4766-9572-2e6b69636164,rev?*%
%TF.SameCoordinates,Original*%
%TF.FileFunction,Drillmap*%
%TF.FilePolarity,Positive*%
%FSLAX45Y45*%
G04 Gerber Fmt 4.5, Leading zero omitted, Abs format (unit mm)*
G04 Created by KiCad (PCBNEW 10.0.0) date 2026-05-09 18:08:53*
%MOMM*%
%LPD*%
G01*
G04 APERTURE LIST*
%ADD10C,0.050000*%
%ADD11C,0.200000*%
%ADD12C,0.100000*%
%ADD13C,0.411480*%
G04 APERTURE END LIST*
D10*
X2700000Y-4400000D02*
G75*
G02*
X3400000Y-3700000I700000J0D01*
G01*
X2700000Y-9600000D02*
X2700000Y-4400000D01*
X3400000Y-3700000D02*
X11000000Y-3700000D01*
X3400000Y-10300000D02*
G75*
G02*
X2700000Y-9600000I0J700000D01*
G01*
X11000000Y-3700000D02*
G75*
G02*
X11700000Y-4400000I0J-700000D01*
G01*
X11000000Y-10300000D02*
X3400000Y-10300000D01*
X11700000Y-4400000D02*
X11700000Y-9600000D01*
X11700000Y-9600000D02*
G75*
G02*
X11000000Y-10300000I-700000J0D01*
G01*
D11*
D12*
X4438500Y-4348000D02*
X4503500Y-4413000D01*
X4503500Y-4348000D02*
X4438500Y-4413000D01*
X5016500Y-4348000D02*
X5081500Y-4413000D01*
X5081500Y-4348000D02*
X5016500Y-4413000D01*
D13*
X5949140Y-9040000D02*
G75*
G02*
X5537660Y-9040000I-205740J0D01*
G01*
X5537660Y-9040000D02*
G75*
G02*
X5949140Y-9040000I205740J0D01*
G01*
X9225740Y-9040000D02*
G75*
G02*
X8814260Y-9040000I-205740J0D01*
G01*
X8814260Y-9040000D02*
G75*
G02*
X9225740Y-9040000I205740J0D01*
G01*
D11*
X2958277Y-10613984D02*
X2958277Y-10413984D01*
X2958277Y-10413984D02*
X3005896Y-10413984D01*
X3005896Y-10413984D02*
X3034467Y-10423508D01*
X3034467Y-10423508D02*
X3053515Y-10442555D01*
X3053515Y-10442555D02*
X3063039Y-10461603D01*
X3063039Y-10461603D02*
X3072562Y-10499698D01*
X3072562Y-10499698D02*
X3072562Y-10528270D01*
X3072562Y-10528270D02*
X3063039Y-10566365D01*
X3063039Y-10566365D02*
X3053515Y-10585412D01*
X3053515Y-10585412D02*
X3034467Y-10604460D01*
X3034467Y-10604460D02*
X3005896Y-10613984D01*
X3005896Y-10613984D02*
X2958277Y-10613984D01*
X3158277Y-10613984D02*
X3158277Y-10480650D01*
X3158277Y-10518746D02*
X3167801Y-10499698D01*
X3167801Y-10499698D02*
X3177324Y-10490174D01*
X3177324Y-10490174D02*
X3196372Y-10480650D01*
X3196372Y-10480650D02*
X3215420Y-10480650D01*
X3282086Y-10613984D02*
X3282086Y-10480650D01*
X3282086Y-10413984D02*
X3272562Y-10423508D01*
X3272562Y-10423508D02*
X3282086Y-10433031D01*
X3282086Y-10433031D02*
X3291610Y-10423508D01*
X3291610Y-10423508D02*
X3282086Y-10413984D01*
X3282086Y-10413984D02*
X3282086Y-10433031D01*
X3405896Y-10613984D02*
X3386848Y-10604460D01*
X3386848Y-10604460D02*
X3377324Y-10585412D01*
X3377324Y-10585412D02*
X3377324Y-10413984D01*
X3510658Y-10613984D02*
X3491610Y-10604460D01*
X3491610Y-10604460D02*
X3482086Y-10585412D01*
X3482086Y-10585412D02*
X3482086Y-10413984D01*
X3739229Y-10613984D02*
X3739229Y-10413984D01*
X3739229Y-10413984D02*
X3805896Y-10556841D01*
X3805896Y-10556841D02*
X3872562Y-10413984D01*
X3872562Y-10413984D02*
X3872562Y-10613984D01*
X4053515Y-10613984D02*
X4053515Y-10509222D01*
X4053515Y-10509222D02*
X4043991Y-10490174D01*
X4043991Y-10490174D02*
X4024943Y-10480650D01*
X4024943Y-10480650D02*
X3986848Y-10480650D01*
X3986848Y-10480650D02*
X3967801Y-10490174D01*
X4053515Y-10604460D02*
X4034467Y-10613984D01*
X4034467Y-10613984D02*
X3986848Y-10613984D01*
X3986848Y-10613984D02*
X3967801Y-10604460D01*
X3967801Y-10604460D02*
X3958277Y-10585412D01*
X3958277Y-10585412D02*
X3958277Y-10566365D01*
X3958277Y-10566365D02*
X3967801Y-10547317D01*
X3967801Y-10547317D02*
X3986848Y-10537793D01*
X3986848Y-10537793D02*
X4034467Y-10537793D01*
X4034467Y-10537793D02*
X4053515Y-10528270D01*
X4148753Y-10480650D02*
X4148753Y-10680650D01*
X4148753Y-10490174D02*
X4167801Y-10480650D01*
X4167801Y-10480650D02*
X4205896Y-10480650D01*
X4205896Y-10480650D02*
X4224944Y-10490174D01*
X4224944Y-10490174D02*
X4234467Y-10499698D01*
X4234467Y-10499698D02*
X4243991Y-10518746D01*
X4243991Y-10518746D02*
X4243991Y-10575889D01*
X4243991Y-10575889D02*
X4234467Y-10594936D01*
X4234467Y-10594936D02*
X4224944Y-10604460D01*
X4224944Y-10604460D02*
X4205896Y-10613984D01*
X4205896Y-10613984D02*
X4167801Y-10613984D01*
X4167801Y-10613984D02*
X4148753Y-10604460D01*
X4329705Y-10594936D02*
X4339229Y-10604460D01*
X4339229Y-10604460D02*
X4329705Y-10613984D01*
X4329705Y-10613984D02*
X4320182Y-10604460D01*
X4320182Y-10604460D02*
X4329705Y-10594936D01*
X4329705Y-10594936D02*
X4329705Y-10613984D01*
X4329705Y-10490174D02*
X4339229Y-10499698D01*
X4339229Y-10499698D02*
X4329705Y-10509222D01*
X4329705Y-10509222D02*
X4320182Y-10499698D01*
X4320182Y-10499698D02*
X4329705Y-10490174D01*
X4329705Y-10490174D02*
X4329705Y-10509222D01*
D12*
X2632500Y-10910000D02*
X2697500Y-10975000D01*
X2697500Y-10910000D02*
X2632500Y-10975000D01*
D11*
X2996372Y-10833984D02*
X3015420Y-10833984D01*
X3015420Y-10833984D02*
X3034467Y-10843508D01*
X3034467Y-10843508D02*
X3043991Y-10853031D01*
X3043991Y-10853031D02*
X3053515Y-10872079D01*
X3053515Y-10872079D02*
X3063039Y-10910174D01*
X3063039Y-10910174D02*
X3063039Y-10957793D01*
X3063039Y-10957793D02*
X3053515Y-10995889D01*
X3053515Y-10995889D02*
X3043991Y-11014936D01*
X3043991Y-11014936D02*
X3034467Y-11024460D01*
X3034467Y-11024460D02*
X3015420Y-11033984D01*
X3015420Y-11033984D02*
X2996372Y-11033984D01*
X2996372Y-11033984D02*
X2977324Y-11024460D01*
X2977324Y-11024460D02*
X2967801Y-11014936D01*
X2967801Y-11014936D02*
X2958277Y-10995889D01*
X2958277Y-10995889D02*
X2948753Y-10957793D01*
X2948753Y-10957793D02*
X2948753Y-10910174D01*
X2948753Y-10910174D02*
X2958277Y-10872079D01*
X2958277Y-10872079D02*
X2967801Y-10853031D01*
X2967801Y-10853031D02*
X2977324Y-10843508D01*
X2977324Y-10843508D02*
X2996372Y-10833984D01*
X3148753Y-11014936D02*
X3158277Y-11024460D01*
X3158277Y-11024460D02*
X3148753Y-11033984D01*
X3148753Y-11033984D02*
X3139229Y-11024460D01*
X3139229Y-11024460D02*
X3148753Y-11014936D01*
X3148753Y-11014936D02*
X3148753Y-11033984D01*
X3329705Y-10833984D02*
X3291610Y-10833984D01*
X3291610Y-10833984D02*
X3272562Y-10843508D01*
X3272562Y-10843508D02*
X3263039Y-10853031D01*
X3263039Y-10853031D02*
X3243991Y-10881603D01*
X3243991Y-10881603D02*
X3234467Y-10919698D01*
X3234467Y-10919698D02*
X3234467Y-10995889D01*
X3234467Y-10995889D02*
X3243991Y-11014936D01*
X3243991Y-11014936D02*
X3253515Y-11024460D01*
X3253515Y-11024460D02*
X3272562Y-11033984D01*
X3272562Y-11033984D02*
X3310658Y-11033984D01*
X3310658Y-11033984D02*
X3329705Y-11024460D01*
X3329705Y-11024460D02*
X3339229Y-11014936D01*
X3339229Y-11014936D02*
X3348753Y-10995889D01*
X3348753Y-10995889D02*
X3348753Y-10948270D01*
X3348753Y-10948270D02*
X3339229Y-10929222D01*
X3339229Y-10929222D02*
X3329705Y-10919698D01*
X3329705Y-10919698D02*
X3310658Y-10910174D01*
X3310658Y-10910174D02*
X3272562Y-10910174D01*
X3272562Y-10910174D02*
X3253515Y-10919698D01*
X3253515Y-10919698D02*
X3243991Y-10929222D01*
X3243991Y-10929222D02*
X3234467Y-10948270D01*
X3529705Y-10833984D02*
X3434467Y-10833984D01*
X3434467Y-10833984D02*
X3424943Y-10929222D01*
X3424943Y-10929222D02*
X3434467Y-10919698D01*
X3434467Y-10919698D02*
X3453515Y-10910174D01*
X3453515Y-10910174D02*
X3501134Y-10910174D01*
X3501134Y-10910174D02*
X3520182Y-10919698D01*
X3520182Y-10919698D02*
X3529705Y-10929222D01*
X3529705Y-10929222D02*
X3539229Y-10948270D01*
X3539229Y-10948270D02*
X3539229Y-10995889D01*
X3539229Y-10995889D02*
X3529705Y-11014936D01*
X3529705Y-11014936D02*
X3520182Y-11024460D01*
X3520182Y-11024460D02*
X3501134Y-11033984D01*
X3501134Y-11033984D02*
X3453515Y-11033984D01*
X3453515Y-11033984D02*
X3434467Y-11024460D01*
X3434467Y-11024460D02*
X3424943Y-11014936D01*
X3663039Y-10833984D02*
X3682086Y-10833984D01*
X3682086Y-10833984D02*
X3701134Y-10843508D01*
X3701134Y-10843508D02*
X3710658Y-10853031D01*
X3710658Y-10853031D02*
X3720182Y-10872079D01*
X3720182Y-10872079D02*
X3729705Y-10910174D01*
X3729705Y-10910174D02*
X3729705Y-10957793D01*
X3729705Y-10957793D02*
X3720182Y-10995889D01*
X3720182Y-10995889D02*
X3710658Y-11014936D01*
X3710658Y-11014936D02*
X3701134Y-11024460D01*
X3701134Y-11024460D02*
X3682086Y-11033984D01*
X3682086Y-11033984D02*
X3663039Y-11033984D01*
X3663039Y-11033984D02*
X3643991Y-11024460D01*
X3643991Y-11024460D02*
X3634467Y-11014936D01*
X3634467Y-11014936D02*
X3624943Y-10995889D01*
X3624943Y-10995889D02*
X3615420Y-10957793D01*
X3615420Y-10957793D02*
X3615420Y-10910174D01*
X3615420Y-10910174D02*
X3624943Y-10872079D01*
X3624943Y-10872079D02*
X3634467Y-10853031D01*
X3634467Y-10853031D02*
X3643991Y-10843508D01*
X3643991Y-10843508D02*
X3663039Y-10833984D01*
X3815420Y-11033984D02*
X3815420Y-10900650D01*
X3815420Y-10919698D02*
X3824943Y-10910174D01*
X3824943Y-10910174D02*
X3843991Y-10900650D01*
X3843991Y-10900650D02*
X3872563Y-10900650D01*
X3872563Y-10900650D02*
X3891610Y-10910174D01*
X3891610Y-10910174D02*
X3901134Y-10929222D01*
X3901134Y-10929222D02*
X3901134Y-11033984D01*
X3901134Y-10929222D02*
X3910658Y-10910174D01*
X3910658Y-10910174D02*
X3929705Y-10900650D01*
X3929705Y-10900650D02*
X3958277Y-10900650D01*
X3958277Y-10900650D02*
X3977324Y-10910174D01*
X3977324Y-10910174D02*
X3986848Y-10929222D01*
X3986848Y-10929222D02*
X3986848Y-11033984D01*
X4082086Y-11033984D02*
X4082086Y-10900650D01*
X4082086Y-10919698D02*
X4091610Y-10910174D01*
X4091610Y-10910174D02*
X4110658Y-10900650D01*
X4110658Y-10900650D02*
X4139229Y-10900650D01*
X4139229Y-10900650D02*
X4158277Y-10910174D01*
X4158277Y-10910174D02*
X4167801Y-10929222D01*
X4167801Y-10929222D02*
X4167801Y-11033984D01*
X4167801Y-10929222D02*
X4177324Y-10910174D01*
X4177324Y-10910174D02*
X4196372Y-10900650D01*
X4196372Y-10900650D02*
X4224944Y-10900650D01*
X4224944Y-10900650D02*
X4243991Y-10910174D01*
X4243991Y-10910174D02*
X4253515Y-10929222D01*
X4253515Y-10929222D02*
X4253515Y-11033984D01*
X4643991Y-10824460D02*
X4472563Y-11081603D01*
X4901134Y-10833984D02*
X4920182Y-10833984D01*
X4920182Y-10833984D02*
X4939229Y-10843508D01*
X4939229Y-10843508D02*
X4948753Y-10853031D01*
X4948753Y-10853031D02*
X4958277Y-10872079D01*
X4958277Y-10872079D02*
X4967801Y-10910174D01*
X4967801Y-10910174D02*
X4967801Y-10957793D01*
X4967801Y-10957793D02*
X4958277Y-10995889D01*
X4958277Y-10995889D02*
X4948753Y-11014936D01*
X4948753Y-11014936D02*
X4939229Y-11024460D01*
X4939229Y-11024460D02*
X4920182Y-11033984D01*
X4920182Y-11033984D02*
X4901134Y-11033984D01*
X4901134Y-11033984D02*
X4882087Y-11024460D01*
X4882087Y-11024460D02*
X4872563Y-11014936D01*
X4872563Y-11014936D02*
X4863039Y-10995889D01*
X4863039Y-10995889D02*
X4853515Y-10957793D01*
X4853515Y-10957793D02*
X4853515Y-10910174D01*
X4853515Y-10910174D02*
X4863039Y-10872079D01*
X4863039Y-10872079D02*
X4872563Y-10853031D01*
X4872563Y-10853031D02*
X4882087Y-10843508D01*
X4882087Y-10843508D02*
X4901134Y-10833984D01*
X5053515Y-11014936D02*
X5063039Y-11024460D01*
X5063039Y-11024460D02*
X5053515Y-11033984D01*
X5053515Y-11033984D02*
X5043991Y-11024460D01*
X5043991Y-11024460D02*
X5053515Y-11014936D01*
X5053515Y-11014936D02*
X5053515Y-11033984D01*
X5186848Y-10833984D02*
X5205896Y-10833984D01*
X5205896Y-10833984D02*
X5224944Y-10843508D01*
X5224944Y-10843508D02*
X5234468Y-10853031D01*
X5234468Y-10853031D02*
X5243991Y-10872079D01*
X5243991Y-10872079D02*
X5253515Y-10910174D01*
X5253515Y-10910174D02*
X5253515Y-10957793D01*
X5253515Y-10957793D02*
X5243991Y-10995889D01*
X5243991Y-10995889D02*
X5234468Y-11014936D01*
X5234468Y-11014936D02*
X5224944Y-11024460D01*
X5224944Y-11024460D02*
X5205896Y-11033984D01*
X5205896Y-11033984D02*
X5186848Y-11033984D01*
X5186848Y-11033984D02*
X5167801Y-11024460D01*
X5167801Y-11024460D02*
X5158277Y-11014936D01*
X5158277Y-11014936D02*
X5148753Y-10995889D01*
X5148753Y-10995889D02*
X5139229Y-10957793D01*
X5139229Y-10957793D02*
X5139229Y-10910174D01*
X5139229Y-10910174D02*
X5148753Y-10872079D01*
X5148753Y-10872079D02*
X5158277Y-10853031D01*
X5158277Y-10853031D02*
X5167801Y-10843508D01*
X5167801Y-10843508D02*
X5186848Y-10833984D01*
X5329706Y-10853031D02*
X5339229Y-10843508D01*
X5339229Y-10843508D02*
X5358277Y-10833984D01*
X5358277Y-10833984D02*
X5405896Y-10833984D01*
X5405896Y-10833984D02*
X5424944Y-10843508D01*
X5424944Y-10843508D02*
X5434468Y-10853031D01*
X5434468Y-10853031D02*
X5443991Y-10872079D01*
X5443991Y-10872079D02*
X5443991Y-10891127D01*
X5443991Y-10891127D02*
X5434468Y-10919698D01*
X5434468Y-10919698D02*
X5320182Y-11033984D01*
X5320182Y-11033984D02*
X5443991Y-11033984D01*
X5624944Y-10833984D02*
X5529706Y-10833984D01*
X5529706Y-10833984D02*
X5520182Y-10929222D01*
X5520182Y-10929222D02*
X5529706Y-10919698D01*
X5529706Y-10919698D02*
X5548753Y-10910174D01*
X5548753Y-10910174D02*
X5596372Y-10910174D01*
X5596372Y-10910174D02*
X5615420Y-10919698D01*
X5615420Y-10919698D02*
X5624944Y-10929222D01*
X5624944Y-10929222D02*
X5634467Y-10948270D01*
X5634467Y-10948270D02*
X5634467Y-10995889D01*
X5634467Y-10995889D02*
X5624944Y-11014936D01*
X5624944Y-11014936D02*
X5615420Y-11024460D01*
X5615420Y-11024460D02*
X5596372Y-11033984D01*
X5596372Y-11033984D02*
X5548753Y-11033984D01*
X5548753Y-11033984D02*
X5529706Y-11024460D01*
X5529706Y-11024460D02*
X5520182Y-11014936D01*
X5805896Y-10833984D02*
X5767801Y-10833984D01*
X5767801Y-10833984D02*
X5748753Y-10843508D01*
X5748753Y-10843508D02*
X5739229Y-10853031D01*
X5739229Y-10853031D02*
X5720182Y-10881603D01*
X5720182Y-10881603D02*
X5710658Y-10919698D01*
X5710658Y-10919698D02*
X5710658Y-10995889D01*
X5710658Y-10995889D02*
X5720182Y-11014936D01*
X5720182Y-11014936D02*
X5729706Y-11024460D01*
X5729706Y-11024460D02*
X5748753Y-11033984D01*
X5748753Y-11033984D02*
X5786848Y-11033984D01*
X5786848Y-11033984D02*
X5805896Y-11024460D01*
X5805896Y-11024460D02*
X5815420Y-11014936D01*
X5815420Y-11014936D02*
X5824944Y-10995889D01*
X5824944Y-10995889D02*
X5824944Y-10948270D01*
X5824944Y-10948270D02*
X5815420Y-10929222D01*
X5815420Y-10929222D02*
X5805896Y-10919698D01*
X5805896Y-10919698D02*
X5786848Y-10910174D01*
X5786848Y-10910174D02*
X5748753Y-10910174D01*
X5748753Y-10910174D02*
X5729706Y-10919698D01*
X5729706Y-10919698D02*
X5720182Y-10929222D01*
X5720182Y-10929222D02*
X5710658Y-10948270D01*
X5901134Y-10833984D02*
X5901134Y-10872079D01*
X5977325Y-10833984D02*
X5977325Y-10872079D01*
X6272563Y-11110174D02*
X6263039Y-11100650D01*
X6263039Y-11100650D02*
X6243991Y-11072079D01*
X6243991Y-11072079D02*
X6234468Y-11053031D01*
X6234468Y-11053031D02*
X6224944Y-11024460D01*
X6224944Y-11024460D02*
X6215420Y-10976841D01*
X6215420Y-10976841D02*
X6215420Y-10938746D01*
X6215420Y-10938746D02*
X6224944Y-10891127D01*
X6224944Y-10891127D02*
X6234468Y-10862555D01*
X6234468Y-10862555D02*
X6243991Y-10843508D01*
X6243991Y-10843508D02*
X6263039Y-10814936D01*
X6263039Y-10814936D02*
X6272563Y-10805412D01*
X6339229Y-10853031D02*
X6348753Y-10843508D01*
X6348753Y-10843508D02*
X6367801Y-10833984D01*
X6367801Y-10833984D02*
X6415420Y-10833984D01*
X6415420Y-10833984D02*
X6434468Y-10843508D01*
X6434468Y-10843508D02*
X6443991Y-10853031D01*
X6443991Y-10853031D02*
X6453515Y-10872079D01*
X6453515Y-10872079D02*
X6453515Y-10891127D01*
X6453515Y-10891127D02*
X6443991Y-10919698D01*
X6443991Y-10919698D02*
X6329706Y-11033984D01*
X6329706Y-11033984D02*
X6453515Y-11033984D01*
X6691610Y-11033984D02*
X6691610Y-10833984D01*
X6777325Y-11033984D02*
X6777325Y-10929222D01*
X6777325Y-10929222D02*
X6767801Y-10910174D01*
X6767801Y-10910174D02*
X6748753Y-10900650D01*
X6748753Y-10900650D02*
X6720182Y-10900650D01*
X6720182Y-10900650D02*
X6701134Y-10910174D01*
X6701134Y-10910174D02*
X6691610Y-10919698D01*
X6901134Y-11033984D02*
X6882087Y-11024460D01*
X6882087Y-11024460D02*
X6872563Y-11014936D01*
X6872563Y-11014936D02*
X6863039Y-10995889D01*
X6863039Y-10995889D02*
X6863039Y-10938746D01*
X6863039Y-10938746D02*
X6872563Y-10919698D01*
X6872563Y-10919698D02*
X6882087Y-10910174D01*
X6882087Y-10910174D02*
X6901134Y-10900650D01*
X6901134Y-10900650D02*
X6929706Y-10900650D01*
X6929706Y-10900650D02*
X6948753Y-10910174D01*
X6948753Y-10910174D02*
X6958277Y-10919698D01*
X6958277Y-10919698D02*
X6967801Y-10938746D01*
X6967801Y-10938746D02*
X6967801Y-10995889D01*
X6967801Y-10995889D02*
X6958277Y-11014936D01*
X6958277Y-11014936D02*
X6948753Y-11024460D01*
X6948753Y-11024460D02*
X6929706Y-11033984D01*
X6929706Y-11033984D02*
X6901134Y-11033984D01*
X7082087Y-11033984D02*
X7063039Y-11024460D01*
X7063039Y-11024460D02*
X7053515Y-11005412D01*
X7053515Y-11005412D02*
X7053515Y-10833984D01*
X7234468Y-11024460D02*
X7215420Y-11033984D01*
X7215420Y-11033984D02*
X7177325Y-11033984D01*
X7177325Y-11033984D02*
X7158277Y-11024460D01*
X7158277Y-11024460D02*
X7148753Y-11005412D01*
X7148753Y-11005412D02*
X7148753Y-10929222D01*
X7148753Y-10929222D02*
X7158277Y-10910174D01*
X7158277Y-10910174D02*
X7177325Y-10900650D01*
X7177325Y-10900650D02*
X7215420Y-10900650D01*
X7215420Y-10900650D02*
X7234468Y-10910174D01*
X7234468Y-10910174D02*
X7243991Y-10929222D01*
X7243991Y-10929222D02*
X7243991Y-10948270D01*
X7243991Y-10948270D02*
X7148753Y-10967317D01*
X7320182Y-11024460D02*
X7339230Y-11033984D01*
X7339230Y-11033984D02*
X7377325Y-11033984D01*
X7377325Y-11033984D02*
X7396372Y-11024460D01*
X7396372Y-11024460D02*
X7405896Y-11005412D01*
X7405896Y-11005412D02*
X7405896Y-10995889D01*
X7405896Y-10995889D02*
X7396372Y-10976841D01*
X7396372Y-10976841D02*
X7377325Y-10967317D01*
X7377325Y-10967317D02*
X7348753Y-10967317D01*
X7348753Y-10967317D02*
X7329706Y-10957793D01*
X7329706Y-10957793D02*
X7320182Y-10938746D01*
X7320182Y-10938746D02*
X7320182Y-10929222D01*
X7320182Y-10929222D02*
X7329706Y-10910174D01*
X7329706Y-10910174D02*
X7348753Y-10900650D01*
X7348753Y-10900650D02*
X7377325Y-10900650D01*
X7377325Y-10900650D02*
X7396372Y-10910174D01*
X7472563Y-11110174D02*
X7482087Y-11100650D01*
X7482087Y-11100650D02*
X7501134Y-11072079D01*
X7501134Y-11072079D02*
X7510658Y-11053031D01*
X7510658Y-11053031D02*
X7520182Y-11024460D01*
X7520182Y-11024460D02*
X7529706Y-10976841D01*
X7529706Y-10976841D02*
X7529706Y-10938746D01*
X7529706Y-10938746D02*
X7520182Y-10891127D01*
X7520182Y-10891127D02*
X7510658Y-10862555D01*
X7510658Y-10862555D02*
X7501134Y-10843508D01*
X7501134Y-10843508D02*
X7482087Y-10814936D01*
X7482087Y-10814936D02*
X7472563Y-10805412D01*
X7834468Y-11110174D02*
X7824944Y-11100650D01*
X7824944Y-11100650D02*
X7805896Y-11072079D01*
X7805896Y-11072079D02*
X7796372Y-11053031D01*
X7796372Y-11053031D02*
X7786849Y-11024460D01*
X7786849Y-11024460D02*
X7777325Y-10976841D01*
X7777325Y-10976841D02*
X7777325Y-10938746D01*
X7777325Y-10938746D02*
X7786849Y-10891127D01*
X7786849Y-10891127D02*
X7796372Y-10862555D01*
X7796372Y-10862555D02*
X7805896Y-10843508D01*
X7805896Y-10843508D02*
X7824944Y-10814936D01*
X7824944Y-10814936D02*
X7834468Y-10805412D01*
X7910658Y-10900650D02*
X7910658Y-11033984D01*
X7910658Y-10919698D02*
X7920182Y-10910174D01*
X7920182Y-10910174D02*
X7939230Y-10900650D01*
X7939230Y-10900650D02*
X7967801Y-10900650D01*
X7967801Y-10900650D02*
X7986849Y-10910174D01*
X7986849Y-10910174D02*
X7996372Y-10929222D01*
X7996372Y-10929222D02*
X7996372Y-11033984D01*
X8120182Y-11033984D02*
X8101134Y-11024460D01*
X8101134Y-11024460D02*
X8091611Y-11014936D01*
X8091611Y-11014936D02*
X8082087Y-10995889D01*
X8082087Y-10995889D02*
X8082087Y-10938746D01*
X8082087Y-10938746D02*
X8091611Y-10919698D01*
X8091611Y-10919698D02*
X8101134Y-10910174D01*
X8101134Y-10910174D02*
X8120182Y-10900650D01*
X8120182Y-10900650D02*
X8148753Y-10900650D01*
X8148753Y-10900650D02*
X8167801Y-10910174D01*
X8167801Y-10910174D02*
X8177325Y-10919698D01*
X8177325Y-10919698D02*
X8186849Y-10938746D01*
X8186849Y-10938746D02*
X8186849Y-10995889D01*
X8186849Y-10995889D02*
X8177325Y-11014936D01*
X8177325Y-11014936D02*
X8167801Y-11024460D01*
X8167801Y-11024460D02*
X8148753Y-11033984D01*
X8148753Y-11033984D02*
X8120182Y-11033984D01*
X8243992Y-10900650D02*
X8320182Y-10900650D01*
X8272563Y-10833984D02*
X8272563Y-11005412D01*
X8272563Y-11005412D02*
X8282087Y-11024460D01*
X8282087Y-11024460D02*
X8301134Y-11033984D01*
X8301134Y-11033984D02*
X8320182Y-11033984D01*
X8539230Y-10900650D02*
X8539230Y-11100650D01*
X8539230Y-10910174D02*
X8558277Y-10900650D01*
X8558277Y-10900650D02*
X8596373Y-10900650D01*
X8596373Y-10900650D02*
X8615420Y-10910174D01*
X8615420Y-10910174D02*
X8624944Y-10919698D01*
X8624944Y-10919698D02*
X8634468Y-10938746D01*
X8634468Y-10938746D02*
X8634468Y-10995889D01*
X8634468Y-10995889D02*
X8624944Y-11014936D01*
X8624944Y-11014936D02*
X8615420Y-11024460D01*
X8615420Y-11024460D02*
X8596373Y-11033984D01*
X8596373Y-11033984D02*
X8558277Y-11033984D01*
X8558277Y-11033984D02*
X8539230Y-11024460D01*
X8748754Y-11033984D02*
X8729706Y-11024460D01*
X8729706Y-11024460D02*
X8720182Y-11005412D01*
X8720182Y-11005412D02*
X8720182Y-10833984D01*
X8910658Y-11033984D02*
X8910658Y-10929222D01*
X8910658Y-10929222D02*
X8901135Y-10910174D01*
X8901135Y-10910174D02*
X8882087Y-10900650D01*
X8882087Y-10900650D02*
X8843992Y-10900650D01*
X8843992Y-10900650D02*
X8824944Y-10910174D01*
X8910658Y-11024460D02*
X8891611Y-11033984D01*
X8891611Y-11033984D02*
X8843992Y-11033984D01*
X8843992Y-11033984D02*
X8824944Y-11024460D01*
X8824944Y-11024460D02*
X8815420Y-11005412D01*
X8815420Y-11005412D02*
X8815420Y-10986365D01*
X8815420Y-10986365D02*
X8824944Y-10967317D01*
X8824944Y-10967317D02*
X8843992Y-10957793D01*
X8843992Y-10957793D02*
X8891611Y-10957793D01*
X8891611Y-10957793D02*
X8910658Y-10948270D01*
X8977325Y-10900650D02*
X9053515Y-10900650D01*
X9005896Y-10833984D02*
X9005896Y-11005412D01*
X9005896Y-11005412D02*
X9015420Y-11024460D01*
X9015420Y-11024460D02*
X9034468Y-11033984D01*
X9034468Y-11033984D02*
X9053515Y-11033984D01*
X9196373Y-11024460D02*
X9177325Y-11033984D01*
X9177325Y-11033984D02*
X9139230Y-11033984D01*
X9139230Y-11033984D02*
X9120182Y-11024460D01*
X9120182Y-11024460D02*
X9110658Y-11005412D01*
X9110658Y-11005412D02*
X9110658Y-10929222D01*
X9110658Y-10929222D02*
X9120182Y-10910174D01*
X9120182Y-10910174D02*
X9139230Y-10900650D01*
X9139230Y-10900650D02*
X9177325Y-10900650D01*
X9177325Y-10900650D02*
X9196373Y-10910174D01*
X9196373Y-10910174D02*
X9205896Y-10929222D01*
X9205896Y-10929222D02*
X9205896Y-10948270D01*
X9205896Y-10948270D02*
X9110658Y-10967317D01*
X9377325Y-11033984D02*
X9377325Y-10833984D01*
X9377325Y-11024460D02*
X9358277Y-11033984D01*
X9358277Y-11033984D02*
X9320182Y-11033984D01*
X9320182Y-11033984D02*
X9301135Y-11024460D01*
X9301135Y-11024460D02*
X9291611Y-11014936D01*
X9291611Y-11014936D02*
X9282087Y-10995889D01*
X9282087Y-10995889D02*
X9282087Y-10938746D01*
X9282087Y-10938746D02*
X9291611Y-10919698D01*
X9291611Y-10919698D02*
X9301135Y-10910174D01*
X9301135Y-10910174D02*
X9320182Y-10900650D01*
X9320182Y-10900650D02*
X9358277Y-10900650D01*
X9358277Y-10900650D02*
X9377325Y-10910174D01*
X9453516Y-11110174D02*
X9463039Y-11100650D01*
X9463039Y-11100650D02*
X9482087Y-11072079D01*
X9482087Y-11072079D02*
X9491611Y-11053031D01*
X9491611Y-11053031D02*
X9501135Y-11024460D01*
X9501135Y-11024460D02*
X9510658Y-10976841D01*
X9510658Y-10976841D02*
X9510658Y-10938746D01*
X9510658Y-10938746D02*
X9501135Y-10891127D01*
X9501135Y-10891127D02*
X9491611Y-10862555D01*
X9491611Y-10862555D02*
X9482087Y-10843508D01*
X9482087Y-10843508D02*
X9463039Y-10814936D01*
X9463039Y-10814936D02*
X9453516Y-10805412D01*
X2697500Y-11206500D02*
G75*
G02*
X2497500Y-11206500I-100000J0D01*
G01*
X2497500Y-11206500D02*
G75*
G02*
X2697500Y-11206500I100000J0D01*
G01*
X3043991Y-11164650D02*
X3043991Y-11297984D01*
X2996372Y-11088460D02*
X2948753Y-11231317D01*
X2948753Y-11231317D02*
X3072562Y-11231317D01*
X3148753Y-11278936D02*
X3158277Y-11288460D01*
X3158277Y-11288460D02*
X3148753Y-11297984D01*
X3148753Y-11297984D02*
X3139229Y-11288460D01*
X3139229Y-11288460D02*
X3148753Y-11278936D01*
X3148753Y-11278936D02*
X3148753Y-11297984D01*
X3348753Y-11297984D02*
X3234467Y-11297984D01*
X3291610Y-11297984D02*
X3291610Y-11097984D01*
X3291610Y-11097984D02*
X3272562Y-11126555D01*
X3272562Y-11126555D02*
X3253515Y-11145603D01*
X3253515Y-11145603D02*
X3234467Y-11155127D01*
X3539229Y-11297984D02*
X3424943Y-11297984D01*
X3482086Y-11297984D02*
X3482086Y-11097984D01*
X3482086Y-11097984D02*
X3463039Y-11126555D01*
X3463039Y-11126555D02*
X3443991Y-11145603D01*
X3443991Y-11145603D02*
X3424943Y-11155127D01*
X3720182Y-11097984D02*
X3624943Y-11097984D01*
X3624943Y-11097984D02*
X3615420Y-11193222D01*
X3615420Y-11193222D02*
X3624943Y-11183698D01*
X3624943Y-11183698D02*
X3643991Y-11174174D01*
X3643991Y-11174174D02*
X3691610Y-11174174D01*
X3691610Y-11174174D02*
X3710658Y-11183698D01*
X3710658Y-11183698D02*
X3720182Y-11193222D01*
X3720182Y-11193222D02*
X3729705Y-11212269D01*
X3729705Y-11212269D02*
X3729705Y-11259888D01*
X3729705Y-11259888D02*
X3720182Y-11278936D01*
X3720182Y-11278936D02*
X3710658Y-11288460D01*
X3710658Y-11288460D02*
X3691610Y-11297984D01*
X3691610Y-11297984D02*
X3643991Y-11297984D01*
X3643991Y-11297984D02*
X3624943Y-11288460D01*
X3624943Y-11288460D02*
X3615420Y-11278936D01*
X3815420Y-11297984D02*
X3815420Y-11164650D01*
X3815420Y-11183698D02*
X3824943Y-11174174D01*
X3824943Y-11174174D02*
X3843991Y-11164650D01*
X3843991Y-11164650D02*
X3872563Y-11164650D01*
X3872563Y-11164650D02*
X3891610Y-11174174D01*
X3891610Y-11174174D02*
X3901134Y-11193222D01*
X3901134Y-11193222D02*
X3901134Y-11297984D01*
X3901134Y-11193222D02*
X3910658Y-11174174D01*
X3910658Y-11174174D02*
X3929705Y-11164650D01*
X3929705Y-11164650D02*
X3958277Y-11164650D01*
X3958277Y-11164650D02*
X3977324Y-11174174D01*
X3977324Y-11174174D02*
X3986848Y-11193222D01*
X3986848Y-11193222D02*
X3986848Y-11297984D01*
X4082086Y-11297984D02*
X4082086Y-11164650D01*
X4082086Y-11183698D02*
X4091610Y-11174174D01*
X4091610Y-11174174D02*
X4110658Y-11164650D01*
X4110658Y-11164650D02*
X4139229Y-11164650D01*
X4139229Y-11164650D02*
X4158277Y-11174174D01*
X4158277Y-11174174D02*
X4167801Y-11193222D01*
X4167801Y-11193222D02*
X4167801Y-11297984D01*
X4167801Y-11193222D02*
X4177324Y-11174174D01*
X4177324Y-11174174D02*
X4196372Y-11164650D01*
X4196372Y-11164650D02*
X4224944Y-11164650D01*
X4224944Y-11164650D02*
X4243991Y-11174174D01*
X4243991Y-11174174D02*
X4253515Y-11193222D01*
X4253515Y-11193222D02*
X4253515Y-11297984D01*
X4643991Y-11088460D02*
X4472563Y-11345603D01*
X4901134Y-11097984D02*
X4920182Y-11097984D01*
X4920182Y-11097984D02*
X4939229Y-11107508D01*
X4939229Y-11107508D02*
X4948753Y-11117031D01*
X4948753Y-11117031D02*
X4958277Y-11136079D01*
X4958277Y-11136079D02*
X4967801Y-11174174D01*
X4967801Y-11174174D02*
X4967801Y-11221793D01*
X4967801Y-11221793D02*
X4958277Y-11259888D01*
X4958277Y-11259888D02*
X4948753Y-11278936D01*
X4948753Y-11278936D02*
X4939229Y-11288460D01*
X4939229Y-11288460D02*
X4920182Y-11297984D01*
X4920182Y-11297984D02*
X4901134Y-11297984D01*
X4901134Y-11297984D02*
X4882087Y-11288460D01*
X4882087Y-11288460D02*
X4872563Y-11278936D01*
X4872563Y-11278936D02*
X4863039Y-11259888D01*
X4863039Y-11259888D02*
X4853515Y-11221793D01*
X4853515Y-11221793D02*
X4853515Y-11174174D01*
X4853515Y-11174174D02*
X4863039Y-11136079D01*
X4863039Y-11136079D02*
X4872563Y-11117031D01*
X4872563Y-11117031D02*
X4882087Y-11107508D01*
X4882087Y-11107508D02*
X4901134Y-11097984D01*
X5053515Y-11278936D02*
X5063039Y-11288460D01*
X5063039Y-11288460D02*
X5053515Y-11297984D01*
X5053515Y-11297984D02*
X5043991Y-11288460D01*
X5043991Y-11288460D02*
X5053515Y-11278936D01*
X5053515Y-11278936D02*
X5053515Y-11297984D01*
X5253515Y-11297984D02*
X5139229Y-11297984D01*
X5196372Y-11297984D02*
X5196372Y-11097984D01*
X5196372Y-11097984D02*
X5177325Y-11126555D01*
X5177325Y-11126555D02*
X5158277Y-11145603D01*
X5158277Y-11145603D02*
X5139229Y-11155127D01*
X5424944Y-11097984D02*
X5386848Y-11097984D01*
X5386848Y-11097984D02*
X5367801Y-11107508D01*
X5367801Y-11107508D02*
X5358277Y-11117031D01*
X5358277Y-11117031D02*
X5339229Y-11145603D01*
X5339229Y-11145603D02*
X5329706Y-11183698D01*
X5329706Y-11183698D02*
X5329706Y-11259888D01*
X5329706Y-11259888D02*
X5339229Y-11278936D01*
X5339229Y-11278936D02*
X5348753Y-11288460D01*
X5348753Y-11288460D02*
X5367801Y-11297984D01*
X5367801Y-11297984D02*
X5405896Y-11297984D01*
X5405896Y-11297984D02*
X5424944Y-11288460D01*
X5424944Y-11288460D02*
X5434468Y-11278936D01*
X5434468Y-11278936D02*
X5443991Y-11259888D01*
X5443991Y-11259888D02*
X5443991Y-11212269D01*
X5443991Y-11212269D02*
X5434468Y-11193222D01*
X5434468Y-11193222D02*
X5424944Y-11183698D01*
X5424944Y-11183698D02*
X5405896Y-11174174D01*
X5405896Y-11174174D02*
X5367801Y-11174174D01*
X5367801Y-11174174D02*
X5348753Y-11183698D01*
X5348753Y-11183698D02*
X5339229Y-11193222D01*
X5339229Y-11193222D02*
X5329706Y-11212269D01*
X5520182Y-11117031D02*
X5529706Y-11107508D01*
X5529706Y-11107508D02*
X5548753Y-11097984D01*
X5548753Y-11097984D02*
X5596372Y-11097984D01*
X5596372Y-11097984D02*
X5615420Y-11107508D01*
X5615420Y-11107508D02*
X5624944Y-11117031D01*
X5624944Y-11117031D02*
X5634467Y-11136079D01*
X5634467Y-11136079D02*
X5634467Y-11155127D01*
X5634467Y-11155127D02*
X5624944Y-11183698D01*
X5624944Y-11183698D02*
X5510658Y-11297984D01*
X5510658Y-11297984D02*
X5634467Y-11297984D01*
X5758277Y-11097984D02*
X5777325Y-11097984D01*
X5777325Y-11097984D02*
X5796372Y-11107508D01*
X5796372Y-11107508D02*
X5805896Y-11117031D01*
X5805896Y-11117031D02*
X5815420Y-11136079D01*
X5815420Y-11136079D02*
X5824944Y-11174174D01*
X5824944Y-11174174D02*
X5824944Y-11221793D01*
X5824944Y-11221793D02*
X5815420Y-11259888D01*
X5815420Y-11259888D02*
X5805896Y-11278936D01*
X5805896Y-11278936D02*
X5796372Y-11288460D01*
X5796372Y-11288460D02*
X5777325Y-11297984D01*
X5777325Y-11297984D02*
X5758277Y-11297984D01*
X5758277Y-11297984D02*
X5739229Y-11288460D01*
X5739229Y-11288460D02*
X5729706Y-11278936D01*
X5729706Y-11278936D02*
X5720182Y-11259888D01*
X5720182Y-11259888D02*
X5710658Y-11221793D01*
X5710658Y-11221793D02*
X5710658Y-11174174D01*
X5710658Y-11174174D02*
X5720182Y-11136079D01*
X5720182Y-11136079D02*
X5729706Y-11117031D01*
X5729706Y-11117031D02*
X5739229Y-11107508D01*
X5739229Y-11107508D02*
X5758277Y-11097984D01*
X5901134Y-11097984D02*
X5901134Y-11136079D01*
X5977325Y-11097984D02*
X5977325Y-11136079D01*
X6272563Y-11374174D02*
X6263039Y-11364650D01*
X6263039Y-11364650D02*
X6243991Y-11336079D01*
X6243991Y-11336079D02*
X6234468Y-11317031D01*
X6234468Y-11317031D02*
X6224944Y-11288460D01*
X6224944Y-11288460D02*
X6215420Y-11240841D01*
X6215420Y-11240841D02*
X6215420Y-11202746D01*
X6215420Y-11202746D02*
X6224944Y-11155127D01*
X6224944Y-11155127D02*
X6234468Y-11126555D01*
X6234468Y-11126555D02*
X6243991Y-11107508D01*
X6243991Y-11107508D02*
X6263039Y-11078936D01*
X6263039Y-11078936D02*
X6272563Y-11069412D01*
X6339229Y-11117031D02*
X6348753Y-11107508D01*
X6348753Y-11107508D02*
X6367801Y-11097984D01*
X6367801Y-11097984D02*
X6415420Y-11097984D01*
X6415420Y-11097984D02*
X6434468Y-11107508D01*
X6434468Y-11107508D02*
X6443991Y-11117031D01*
X6443991Y-11117031D02*
X6453515Y-11136079D01*
X6453515Y-11136079D02*
X6453515Y-11155127D01*
X6453515Y-11155127D02*
X6443991Y-11183698D01*
X6443991Y-11183698D02*
X6329706Y-11297984D01*
X6329706Y-11297984D02*
X6453515Y-11297984D01*
X6691610Y-11297984D02*
X6691610Y-11097984D01*
X6777325Y-11297984D02*
X6777325Y-11193222D01*
X6777325Y-11193222D02*
X6767801Y-11174174D01*
X6767801Y-11174174D02*
X6748753Y-11164650D01*
X6748753Y-11164650D02*
X6720182Y-11164650D01*
X6720182Y-11164650D02*
X6701134Y-11174174D01*
X6701134Y-11174174D02*
X6691610Y-11183698D01*
X6901134Y-11297984D02*
X6882087Y-11288460D01*
X6882087Y-11288460D02*
X6872563Y-11278936D01*
X6872563Y-11278936D02*
X6863039Y-11259888D01*
X6863039Y-11259888D02*
X6863039Y-11202746D01*
X6863039Y-11202746D02*
X6872563Y-11183698D01*
X6872563Y-11183698D02*
X6882087Y-11174174D01*
X6882087Y-11174174D02*
X6901134Y-11164650D01*
X6901134Y-11164650D02*
X6929706Y-11164650D01*
X6929706Y-11164650D02*
X6948753Y-11174174D01*
X6948753Y-11174174D02*
X6958277Y-11183698D01*
X6958277Y-11183698D02*
X6967801Y-11202746D01*
X6967801Y-11202746D02*
X6967801Y-11259888D01*
X6967801Y-11259888D02*
X6958277Y-11278936D01*
X6958277Y-11278936D02*
X6948753Y-11288460D01*
X6948753Y-11288460D02*
X6929706Y-11297984D01*
X6929706Y-11297984D02*
X6901134Y-11297984D01*
X7082087Y-11297984D02*
X7063039Y-11288460D01*
X7063039Y-11288460D02*
X7053515Y-11269412D01*
X7053515Y-11269412D02*
X7053515Y-11097984D01*
X7234468Y-11288460D02*
X7215420Y-11297984D01*
X7215420Y-11297984D02*
X7177325Y-11297984D01*
X7177325Y-11297984D02*
X7158277Y-11288460D01*
X7158277Y-11288460D02*
X7148753Y-11269412D01*
X7148753Y-11269412D02*
X7148753Y-11193222D01*
X7148753Y-11193222D02*
X7158277Y-11174174D01*
X7158277Y-11174174D02*
X7177325Y-11164650D01*
X7177325Y-11164650D02*
X7215420Y-11164650D01*
X7215420Y-11164650D02*
X7234468Y-11174174D01*
X7234468Y-11174174D02*
X7243991Y-11193222D01*
X7243991Y-11193222D02*
X7243991Y-11212269D01*
X7243991Y-11212269D02*
X7148753Y-11231317D01*
X7320182Y-11288460D02*
X7339230Y-11297984D01*
X7339230Y-11297984D02*
X7377325Y-11297984D01*
X7377325Y-11297984D02*
X7396372Y-11288460D01*
X7396372Y-11288460D02*
X7405896Y-11269412D01*
X7405896Y-11269412D02*
X7405896Y-11259888D01*
X7405896Y-11259888D02*
X7396372Y-11240841D01*
X7396372Y-11240841D02*
X7377325Y-11231317D01*
X7377325Y-11231317D02*
X7348753Y-11231317D01*
X7348753Y-11231317D02*
X7329706Y-11221793D01*
X7329706Y-11221793D02*
X7320182Y-11202746D01*
X7320182Y-11202746D02*
X7320182Y-11193222D01*
X7320182Y-11193222D02*
X7329706Y-11174174D01*
X7329706Y-11174174D02*
X7348753Y-11164650D01*
X7348753Y-11164650D02*
X7377325Y-11164650D01*
X7377325Y-11164650D02*
X7396372Y-11174174D01*
X7472563Y-11374174D02*
X7482087Y-11364650D01*
X7482087Y-11364650D02*
X7501134Y-11336079D01*
X7501134Y-11336079D02*
X7510658Y-11317031D01*
X7510658Y-11317031D02*
X7520182Y-11288460D01*
X7520182Y-11288460D02*
X7529706Y-11240841D01*
X7529706Y-11240841D02*
X7529706Y-11202746D01*
X7529706Y-11202746D02*
X7520182Y-11155127D01*
X7520182Y-11155127D02*
X7510658Y-11126555D01*
X7510658Y-11126555D02*
X7501134Y-11107508D01*
X7501134Y-11107508D02*
X7482087Y-11078936D01*
X7482087Y-11078936D02*
X7472563Y-11069412D01*
X7834468Y-11374174D02*
X7824944Y-11364650D01*
X7824944Y-11364650D02*
X7805896Y-11336079D01*
X7805896Y-11336079D02*
X7796372Y-11317031D01*
X7796372Y-11317031D02*
X7786849Y-11288460D01*
X7786849Y-11288460D02*
X7777325Y-11240841D01*
X7777325Y-11240841D02*
X7777325Y-11202746D01*
X7777325Y-11202746D02*
X7786849Y-11155127D01*
X7786849Y-11155127D02*
X7796372Y-11126555D01*
X7796372Y-11126555D02*
X7805896Y-11107508D01*
X7805896Y-11107508D02*
X7824944Y-11078936D01*
X7824944Y-11078936D02*
X7834468Y-11069412D01*
X7910658Y-11164650D02*
X7910658Y-11297984D01*
X7910658Y-11183698D02*
X7920182Y-11174174D01*
X7920182Y-11174174D02*
X7939230Y-11164650D01*
X7939230Y-11164650D02*
X7967801Y-11164650D01*
X7967801Y-11164650D02*
X7986849Y-11174174D01*
X7986849Y-11174174D02*
X7996372Y-11193222D01*
X7996372Y-11193222D02*
X7996372Y-11297984D01*
X8120182Y-11297984D02*
X8101134Y-11288460D01*
X8101134Y-11288460D02*
X8091611Y-11278936D01*
X8091611Y-11278936D02*
X8082087Y-11259888D01*
X8082087Y-11259888D02*
X8082087Y-11202746D01*
X8082087Y-11202746D02*
X8091611Y-11183698D01*
X8091611Y-11183698D02*
X8101134Y-11174174D01*
X8101134Y-11174174D02*
X8120182Y-11164650D01*
X8120182Y-11164650D02*
X8148753Y-11164650D01*
X8148753Y-11164650D02*
X8167801Y-11174174D01*
X8167801Y-11174174D02*
X8177325Y-11183698D01*
X8177325Y-11183698D02*
X8186849Y-11202746D01*
X8186849Y-11202746D02*
X8186849Y-11259888D01*
X8186849Y-11259888D02*
X8177325Y-11278936D01*
X8177325Y-11278936D02*
X8167801Y-11288460D01*
X8167801Y-11288460D02*
X8148753Y-11297984D01*
X8148753Y-11297984D02*
X8120182Y-11297984D01*
X8243992Y-11164650D02*
X8320182Y-11164650D01*
X8272563Y-11097984D02*
X8272563Y-11269412D01*
X8272563Y-11269412D02*
X8282087Y-11288460D01*
X8282087Y-11288460D02*
X8301134Y-11297984D01*
X8301134Y-11297984D02*
X8320182Y-11297984D01*
X8539230Y-11164650D02*
X8539230Y-11364650D01*
X8539230Y-11174174D02*
X8558277Y-11164650D01*
X8558277Y-11164650D02*
X8596373Y-11164650D01*
X8596373Y-11164650D02*
X8615420Y-11174174D01*
X8615420Y-11174174D02*
X8624944Y-11183698D01*
X8624944Y-11183698D02*
X8634468Y-11202746D01*
X8634468Y-11202746D02*
X8634468Y-11259888D01*
X8634468Y-11259888D02*
X8624944Y-11278936D01*
X8624944Y-11278936D02*
X8615420Y-11288460D01*
X8615420Y-11288460D02*
X8596373Y-11297984D01*
X8596373Y-11297984D02*
X8558277Y-11297984D01*
X8558277Y-11297984D02*
X8539230Y-11288460D01*
X8748754Y-11297984D02*
X8729706Y-11288460D01*
X8729706Y-11288460D02*
X8720182Y-11269412D01*
X8720182Y-11269412D02*
X8720182Y-11097984D01*
X8910658Y-11297984D02*
X8910658Y-11193222D01*
X8910658Y-11193222D02*
X8901135Y-11174174D01*
X8901135Y-11174174D02*
X8882087Y-11164650D01*
X8882087Y-11164650D02*
X8843992Y-11164650D01*
X8843992Y-11164650D02*
X8824944Y-11174174D01*
X8910658Y-11288460D02*
X8891611Y-11297984D01*
X8891611Y-11297984D02*
X8843992Y-11297984D01*
X8843992Y-11297984D02*
X8824944Y-11288460D01*
X8824944Y-11288460D02*
X8815420Y-11269412D01*
X8815420Y-11269412D02*
X8815420Y-11250365D01*
X8815420Y-11250365D02*
X8824944Y-11231317D01*
X8824944Y-11231317D02*
X8843992Y-11221793D01*
X8843992Y-11221793D02*
X8891611Y-11221793D01*
X8891611Y-11221793D02*
X8910658Y-11212269D01*
X8977325Y-11164650D02*
X9053515Y-11164650D01*
X9005896Y-11097984D02*
X9005896Y-11269412D01*
X9005896Y-11269412D02*
X9015420Y-11288460D01*
X9015420Y-11288460D02*
X9034468Y-11297984D01*
X9034468Y-11297984D02*
X9053515Y-11297984D01*
X9196373Y-11288460D02*
X9177325Y-11297984D01*
X9177325Y-11297984D02*
X9139230Y-11297984D01*
X9139230Y-11297984D02*
X9120182Y-11288460D01*
X9120182Y-11288460D02*
X9110658Y-11269412D01*
X9110658Y-11269412D02*
X9110658Y-11193222D01*
X9110658Y-11193222D02*
X9120182Y-11174174D01*
X9120182Y-11174174D02*
X9139230Y-11164650D01*
X9139230Y-11164650D02*
X9177325Y-11164650D01*
X9177325Y-11164650D02*
X9196373Y-11174174D01*
X9196373Y-11174174D02*
X9205896Y-11193222D01*
X9205896Y-11193222D02*
X9205896Y-11212269D01*
X9205896Y-11212269D02*
X9110658Y-11231317D01*
X9377325Y-11297984D02*
X9377325Y-11097984D01*
X9377325Y-11288460D02*
X9358277Y-11297984D01*
X9358277Y-11297984D02*
X9320182Y-11297984D01*
X9320182Y-11297984D02*
X9301135Y-11288460D01*
X9301135Y-11288460D02*
X9291611Y-11278936D01*
X9291611Y-11278936D02*
X9282087Y-11259888D01*
X9282087Y-11259888D02*
X9282087Y-11202746D01*
X9282087Y-11202746D02*
X9291611Y-11183698D01*
X9291611Y-11183698D02*
X9301135Y-11174174D01*
X9301135Y-11174174D02*
X9320182Y-11164650D01*
X9320182Y-11164650D02*
X9358277Y-11164650D01*
X9358277Y-11164650D02*
X9377325Y-11174174D01*
X9453516Y-11374174D02*
X9463039Y-11364650D01*
X9463039Y-11364650D02*
X9482087Y-11336079D01*
X9482087Y-11336079D02*
X9491611Y-11317031D01*
X9491611Y-11317031D02*
X9501135Y-11288460D01*
X9501135Y-11288460D02*
X9510658Y-11240841D01*
X9510658Y-11240841D02*
X9510658Y-11202746D01*
X9510658Y-11202746D02*
X9501135Y-11155127D01*
X9501135Y-11155127D02*
X9491611Y-11126555D01*
X9491611Y-11126555D02*
X9482087Y-11107508D01*
X9482087Y-11107508D02*
X9463039Y-11078936D01*
X9463039Y-11078936D02*
X9453516Y-11069412D01*
M02*
