%TF.GenerationSoftware,KiCad,Pcbnew,10.0.0*%
%TF.CreationDate,2026-07-12T17:26:46+02:00*%
%TF.ProjectId,DotDriver,446f7444-7269-4766-9572-2e6b69636164,rev?*%
%TF.SameCoordinates,Original*%
%TF.FileFunction,Paste,Top*%
%TF.FilePolarity,Positive*%
%FSLAX46Y46*%
G04 Gerber Fmt 4.6, Leading zero omitted, Abs format (unit mm)*
G04 Created by KiCad (PCBNEW 10.0.0) date 2026-07-12 17:26:46*
%MOMM*%
%LPD*%
G01*
G04 APERTURE LIST*
G04 Aperture macros list*
%AMRoundRect*
0 Rectangle with rounded corners*
0 $1 Rounding radius*
0 $2 $3 $4 $5 $6 $7 $8 $9 X,Y pos of 4 corners*
0 Add a 4 corners polygon primitive as box body*
4,1,4,$2,$3,$4,$5,$6,$7,$8,$9,$2,$3,0*
0 Add four circle primitives for the rounded corners*
1,1,$1+$1,$2,$3*
1,1,$1+$1,$4,$5*
1,1,$1+$1,$6,$7*
1,1,$1+$1,$8,$9*
0 Add four rect primitives between the rounded corners*
20,1,$1+$1,$2,$3,$4,$5,0*
20,1,$1+$1,$4,$5,$6,$7,0*
20,1,$1+$1,$6,$7,$8,$9,0*
20,1,$1+$1,$8,$9,$2,$3,0*%
G04 Aperture macros list end*
%ADD10RoundRect,0.250000X0.350000X0.450000X-0.350000X0.450000X-0.350000X-0.450000X0.350000X-0.450000X0*%
%ADD11RoundRect,0.250001X0.624999X-0.462499X0.624999X0.462499X-0.624999X0.462499X-0.624999X-0.462499X0*%
%ADD12RoundRect,0.250000X0.337500X0.475000X-0.337500X0.475000X-0.337500X-0.475000X0.337500X-0.475000X0*%
%ADD13R,2.200000X1.500000*%
%ADD14RoundRect,0.150000X0.150000X0.500000X-0.150000X0.500000X-0.150000X-0.500000X0.150000X-0.500000X0*%
%ADD15RoundRect,0.075000X0.075000X0.575000X-0.075000X0.575000X-0.075000X-0.575000X0.075000X-0.575000X0*%
%ADD16RoundRect,0.250000X-0.475000X0.337500X-0.475000X-0.337500X0.475000X-0.337500X0.475000X0.337500X0*%
%ADD17RoundRect,0.250000X-1.500000X-0.550000X1.500000X-0.550000X1.500000X0.550000X-1.500000X0.550000X0*%
%ADD18RoundRect,0.250000X-0.337500X-0.475000X0.337500X-0.475000X0.337500X0.475000X-0.337500X0.475000X0*%
%ADD19RoundRect,0.250000X0.450000X-0.350000X0.450000X0.350000X-0.450000X0.350000X-0.450000X-0.350000X0*%
%ADD20RoundRect,0.250000X-0.450000X0.350000X-0.450000X-0.350000X0.450000X-0.350000X0.450000X0.350000X0*%
%ADD21R,0.600000X1.200000*%
%ADD22RoundRect,0.250000X0.475000X-0.337500X0.475000X0.337500X-0.475000X0.337500X-0.475000X-0.337500X0*%
%ADD23R,0.700000X1.550000*%
%ADD24RoundRect,0.250000X0.550000X-1.050000X0.550000X1.050000X-0.550000X1.050000X-0.550000X-1.050000X0*%
%ADD25R,0.900000X0.900000*%
%ADD26R,1.500000X0.900000*%
%ADD27R,0.900000X1.500000*%
%ADD28RoundRect,0.250000X2.375000X-2.025000X2.375000X2.025000X-2.375000X2.025000X-2.375000X-2.025000X0*%
%ADD29RoundRect,0.250000X0.300000X-2.050000X0.300000X2.050000X-0.300000X2.050000X-0.300000X-2.050000X0*%
%ADD30RoundRect,0.250000X-0.350000X-0.450000X0.350000X-0.450000X0.350000X0.450000X-0.350000X0.450000X0*%
%ADD31R,5.400000X2.900000*%
%ADD32RoundRect,0.250000X-1.050000X-0.550000X1.050000X-0.550000X1.050000X0.550000X-1.050000X0.550000X0*%
%ADD33R,1.600000X3.500000*%
%ADD34R,12.200000X9.750000*%
G04 APERTURE END LIST*
D10*
%TO.C,R4*%
X45600000Y-47400000D03*
X43600000Y-47400000D03*
%TD*%
D11*
%TO.C,D5*%
X68600000Y-64887500D03*
X68600000Y-61912500D03*
%TD*%
D12*
%TO.C,C5*%
X63237500Y-57200000D03*
X61162500Y-57200000D03*
%TD*%
D13*
%TO.C,L1*%
X61200000Y-61800000D03*
X61200000Y-68200000D03*
%TD*%
D14*
%TO.C,J1*%
X50800000Y-44945000D03*
X50000000Y-44945000D03*
D15*
X48850000Y-44945000D03*
X47850000Y-44945000D03*
X47350000Y-44945000D03*
X46350000Y-44945000D03*
D14*
X45200000Y-44945000D03*
X44400000Y-44945000D03*
X44400000Y-44945000D03*
X45200000Y-44945000D03*
D15*
X45850000Y-44945000D03*
X46850000Y-44945000D03*
X48350000Y-44945000D03*
X49350000Y-44945000D03*
D14*
X50000000Y-44945000D03*
X50800000Y-44945000D03*
%TD*%
D16*
%TO.C,C4*%
X58600000Y-57162500D03*
X58600000Y-59237500D03*
%TD*%
D11*
%TO.C,D4*%
X101400000Y-61775000D03*
X101400000Y-58800000D03*
%TD*%
D17*
%TO.C,C6*%
X33300000Y-68600000D03*
X38700000Y-68600000D03*
%TD*%
D18*
%TO.C,C1*%
X62112500Y-76700000D03*
X64187500Y-76700000D03*
%TD*%
D19*
%TO.C,R9*%
X101260000Y-54600000D03*
X101260000Y-52600000D03*
%TD*%
D20*
%TO.C,R6*%
X111300000Y-57400000D03*
X111300000Y-59400000D03*
%TD*%
D19*
%TO.C,R7*%
X93325000Y-54507500D03*
X93325000Y-52507500D03*
%TD*%
D21*
%TO.C,IC1*%
X64200000Y-71600000D03*
X63250000Y-71600000D03*
X62300000Y-71600000D03*
X62300000Y-74200000D03*
X63250000Y-74200000D03*
X64200000Y-74200000D03*
%TD*%
D22*
%TO.C,C9*%
X67800000Y-49437500D03*
X67800000Y-47362500D03*
%TD*%
D23*
%TO.C,IC2*%
X89210000Y-73275000D03*
X87940000Y-73275000D03*
X86670000Y-73275000D03*
X85400000Y-73275000D03*
X84130000Y-73275000D03*
X82860000Y-73275000D03*
X81590000Y-73275000D03*
X81590000Y-78725000D03*
X82860000Y-78725000D03*
X84130000Y-78725000D03*
X85400000Y-78725000D03*
X86670000Y-78725000D03*
X87940000Y-78725000D03*
X89210000Y-78725000D03*
%TD*%
D24*
%TO.C,C8*%
X62000000Y-51200000D03*
X62000000Y-47600000D03*
%TD*%
D25*
%TO.C,U1*%
X77700000Y-53000000D03*
X77700000Y-54400000D03*
X77700000Y-55800000D03*
X79100000Y-53000000D03*
X79100000Y-54400000D03*
X79100000Y-55800000D03*
X80500000Y-53000000D03*
X80500000Y-54400000D03*
X80500000Y-55800000D03*
D26*
X71850000Y-46680000D03*
X71850000Y-47950000D03*
X71850000Y-49220000D03*
X71850000Y-50490000D03*
X71850000Y-51760000D03*
X71850000Y-53030000D03*
X71850000Y-54300000D03*
X71850000Y-55570000D03*
X71850000Y-56840000D03*
X71850000Y-58110000D03*
X71850000Y-59380000D03*
X71850000Y-60650000D03*
X71850000Y-61920000D03*
X71850000Y-63190000D03*
D27*
X73615000Y-64440000D03*
X74885000Y-64440000D03*
X76155000Y-64440000D03*
X77425000Y-64440000D03*
X78695000Y-64440000D03*
X79965000Y-64440000D03*
X81235000Y-64440000D03*
X82505000Y-64440000D03*
X83775000Y-64440000D03*
X85045000Y-64440000D03*
X86315000Y-64440000D03*
X87585000Y-64440000D03*
D26*
X89350000Y-63190000D03*
X89350000Y-61920000D03*
X89350000Y-60650000D03*
X89350000Y-59380000D03*
X89350000Y-58110000D03*
X89350000Y-56840000D03*
X89350000Y-55570000D03*
X89350000Y-54300000D03*
X89350000Y-53030000D03*
X89350000Y-51760000D03*
X89350000Y-50490000D03*
X89350000Y-49220000D03*
X89350000Y-47950000D03*
X89350000Y-46680000D03*
%TD*%
D16*
%TO.C,C10*%
X111300000Y-66862500D03*
X111300000Y-68937500D03*
%TD*%
D19*
%TO.C,R13*%
X68605000Y-59920000D03*
X68605000Y-57920000D03*
%TD*%
%TO.C,R8*%
X97325000Y-54507500D03*
X97325000Y-52507500D03*
%TD*%
D11*
%TO.C,D3*%
X97200000Y-61775000D03*
X97200000Y-58800000D03*
%TD*%
D10*
%TO.C,R10*%
X94600000Y-66600000D03*
X92600000Y-66600000D03*
%TD*%
D16*
%TO.C,C3*%
X66400000Y-71762500D03*
X66400000Y-73837500D03*
%TD*%
D19*
%TO.C,R5*%
X111300000Y-63400000D03*
X111300000Y-61400000D03*
%TD*%
D28*
%TO.C,U2*%
X48025000Y-59875000D03*
X53575000Y-59875000D03*
X48025000Y-55025000D03*
X53575000Y-55025000D03*
D29*
X47400000Y-66600000D03*
X49100000Y-66600000D03*
X50800000Y-66600000D03*
X52500000Y-66600000D03*
X54200000Y-66600000D03*
%TD*%
D10*
%TO.C,R2*%
X57400000Y-71600000D03*
X55400000Y-71600000D03*
%TD*%
D30*
%TO.C,R11*%
X92600000Y-70600000D03*
X94600000Y-70600000D03*
%TD*%
D10*
%TO.C,R12*%
X109200000Y-71400000D03*
X107200000Y-71400000D03*
%TD*%
D11*
%TO.C,D2*%
X93200000Y-61775000D03*
X93200000Y-58800000D03*
%TD*%
D30*
%TO.C,R3*%
X48800000Y-47400000D03*
X50800000Y-47400000D03*
%TD*%
D31*
%TO.C,L2*%
X47400000Y-81950000D03*
X47400000Y-72050000D03*
%TD*%
D22*
%TO.C,C11*%
X111300000Y-53937500D03*
X111300000Y-51862500D03*
%TD*%
D32*
%TO.C,C12*%
X61250000Y-80700000D03*
X64850000Y-80700000D03*
%TD*%
D30*
%TO.C,R1*%
X61200000Y-59400000D03*
X63200000Y-59400000D03*
%TD*%
D33*
%TO.C,U3*%
X112140000Y-75520000D03*
D34*
X109600000Y-85800000D03*
D33*
X107060000Y-75520000D03*
%TD*%
D23*
%TO.C,IC3*%
X78070000Y-73150000D03*
X76800000Y-73150000D03*
X75530000Y-73150000D03*
X74260000Y-73150000D03*
X72990000Y-73150000D03*
X71720000Y-73150000D03*
X70450000Y-73150000D03*
X70450000Y-78600000D03*
X71720000Y-78600000D03*
X72990000Y-78600000D03*
X74260000Y-78600000D03*
X75530000Y-78600000D03*
X76800000Y-78600000D03*
X78070000Y-78600000D03*
%TD*%
M02*
